<?xml version="1.0" encoding="utf-8"?>
<!-- Generator: Adobe Illustrator 24.2.1, SVG Export Plug-In . SVG Version: 6.00 Build 0)  -->
<svg version="1.1" id="Layer_1" xmlns="http://www.w3.org/2000/svg" xmlns:xlink="http://www.w3.org/1999/xlink" x="0px" y="0px"
	 viewBox="0 0 16 16" style="enable-background:new 0 0 16 16;" xml:space="preserve">
<style type="text/css">
	.st0{fill:#FFFFFF;}
	.st1{fill:none;}
</style>
<path class="st0" d="M5.7,2.7h4.5c1.7,0,3.1,1.4,3.1,3.1v4.5c0,1.7-1.4,3.1-3,3.1c0,0,0,0,0,0H5.7c-1.7,0-3-1.3-3.1-2.9
	c0,0,0,0,0-0.1V5.7C2.7,4,4,2.7,5.7,2.7 M5.7,3.7c-1.1,0-1.9,0.9-1.9,1.9l0,0v4.7c0,1.1,0.9,1.9,1.9,1.9h4.7c1.1,0,1.9-0.9,1.9-1.9
	l0,0V5.7c0-1.1-0.9-1.9-1.9-1.9H5.7 M10.8,4.5c0.4,0,0.7,0.3,0.7,0.7s-0.3,0.7-0.7,0.7s-0.7-0.3-0.7-0.7l0,0
	C10.2,4.8,10.4,4.6,10.8,4.5 M8,5.3c1.5,0,2.7,1.2,2.7,2.7c0,1.5-1.2,2.7-2.7,2.7c-1.5,0-2.7-1.2-2.7-2.7c0,0,0,0,0,0
	C5.3,6.5,6.5,5.3,8,5.3 M8,6.4C7.2,6.4,6.4,7,6.4,7.9c0,0,0,0.1,0,0.1c0,0.8,0.6,1.6,1.5,1.6c0,0,0.1,0,0.1,0c0.8,0,1.6-0.6,1.6-1.5
	c0,0,0-0.1,0-0.1c0-0.8-0.6-1.6-1.5-1.6C8.1,6.4,8,6.4,8,6.4L8,6.4z"/>
<rect class="st1" width="16" height="16"/>
</svg>
