<?xml version="1.0" encoding="utf-8"?>
<!-- Generator: Adobe Illustrator 24.1.2, SVG Export Plug-In . SVG Version: 6.00 Build 0)  -->
<svg version="1.1" id="Layer_1" xmlns="http://www.w3.org/2000/svg" xmlns:xlink="http://www.w3.org/1999/xlink" x="0px" y="0px"
	 viewBox="0 0 20 20" style="enable-background:new 0 0 20 20;" xml:space="preserve">
<style type="text/css">
	.st0{fill:#FFFFFF;}
</style>
<path class="st0" d="M16.4,12.8L16.4,12.8c-0.1-0.2-0.3-0.4-0.5-0.5l-2.2-1.5c-0.3-0.1-0.5-0.2-0.8-0.2c-0.4,0-0.7,0.1-1,0.4l-1,1.3
	c-0.1,0.1-0.3,0.2-0.5,0.2c-0.5,0-1.2-0.4-1.9-1c-0.6-0.7-1-1.5-1-2c0-0.2,0.2-0.4,0.3-0.5l1.2-1c0.2-0.3,0.4-0.6,0.4-1
	c0-0.3,0-0.6-0.2-0.8L7.8,4.1C7.6,3.9,7.5,3.8,7.4,3.7L7.3,3.6C7,3.2,6.6,3,6.2,3c-0.4,0-0.7,0.1-1,0.4L3.8,4.8C3.3,5.2,3,5.8,3,6.5
	c0,0.1,0,0.2,0,0.3C3,6.9,3,6.9,3,7c0,2.6,1,5.1,3,7c1.9,1.9,4.4,3,7,3c0.1,0,0.1,0,0.2,0c0.1,0,0.2,0,0.3,0c0.7,0,1.2-0.3,1.7-0.7
	l1.4-1.5c0.3-0.2,0.4-0.6,0.4-0.9C17,13.4,16.8,13,16.4,12.8z M15.7,13.8l-1.4,1.5c-0.3,0.4-0.7,0.6-1.1,0.6c-2.3,0-4.5-0.9-6.3-2.5
	c-1.7-1.8-2.6-4-2.6-6.4c0-0.5,0.2-0.9,0.5-1.3l1.6-1.4c0,0,0.1-0.1,0.2-0.1c0.1,0,0.2,0.1,0.2,0.1l1.5,2.1c0,0,0,0.1,0,0.1
	c0,0.1-0.1,0.2-0.1,0.3L6.9,8C6.7,8.3,6.5,8.7,6.5,9c0,0.1,0,0.2,0,0.2c0,0.1,0,0.2,0,0.2c0,0.8,0.5,1.7,1.3,2.7
	c0.9,0.9,1.9,1.4,2.7,1.4c0.1,0,0.2,0,0.3,0c0.1,0,0.1,0,0.2,0c0.4,0,0.7-0.1,1-0.4l1-1.2c0.1-0.1,0.2-0.1,0.3-0.1c0,0,0.1,0,0.1,0
	l2.2,1.5c0.1,0,0.2,0.1,0.2,0.2C15.7,13.7,15.7,13.8,15.7,13.8z"/>
</svg>
