<?xml version="1.0" encoding="utf-8"?>
<!-- Generator: Adobe Illustrator 24.1.2, SVG Export Plug-In . SVG Version: 6.00 Build 0)  -->
<svg version="1.1" id="Layer_1" xmlns="http://www.w3.org/2000/svg" xmlns:xlink="http://www.w3.org/1999/xlink" x="0px" y="0px"
	 viewBox="0 0 17 17" style="enable-background:new 0 0 17 17;" xml:space="preserve">
<style type="text/css">
	.st0{fill-rule:evenodd;clip-rule:evenodd;fill:#1f887b ;}
</style>
<g>
	<path class="st0" d="M13.4,11.4c-0.2-0.1-1-0.5-1.2-0.6c-0.2-0.1-0.3-0.1-0.4,0.1c-0.1,0.2-0.5,0.5-0.6,0.7c-0.1,0.1-0.2,0.1-0.4,0
		c-0.2-0.1-0.7-0.3-1.4-0.9c-0.5-0.5-0.8-1.1-0.9-1.2C8.4,9.2,8.5,9.1,8.6,9c0.1-0.1,0.2-0.2,0.3-0.3C9,8.6,9,8.5,9.1,8.4
		c0.1-0.1,0-0.2,0-0.3c0-0.1-0.4-1-0.5-1.3C8.4,6.5,8.3,6.5,8.2,6.5c-0.1,0-0.2,0-0.3,0c-0.1,0-0.3,0-0.5,0.2
		C7.2,6.9,6.7,7.3,6.7,8.1c0,0.9,0.6,1.7,0.6,1.8c0.1,0.1,1.1,2,2.9,2.7c1.8,0.8,1.8,0.5,2.1,0.5c0.3,0,1.1-0.4,1.2-0.8
		c0.2-0.4,0.2-0.7,0.1-0.8C13.6,11.5,13.5,11.5,13.4,11.4L13.4,11.4z M10.1,15.5c-1.2,0-2.2-0.3-3.1-0.9l-2.2,0.7l0.7-2.1
		c-0.7-0.9-1.1-2.1-1.1-3.3c0-3.1,2.6-5.7,5.7-5.7c3.2,0,5.7,2.5,5.7,5.7C15.8,12.9,13.3,15.5,10.1,15.5L10.1,15.5z M10.1,3
		C6.3,3,3.3,6.1,3.3,9.8c0,1.3,0.4,2.5,1,3.5L3,17l3.8-1.2c1,0.5,2.1,0.8,3.3,0.8c3.8,0,6.9-3.1,6.9-6.8C17,6.1,13.9,3,10.1,3
		L10.1,3z"/>
</g>
</svg>
