<?xml version="1.0" encoding="utf-8"?>
<!-- Generator: Adobe Illustrator 24.1.2, SVG Export Plug-In . SVG Version: 6.00 Build 0)  -->
<svg version="1.1" id="Layer_1" xmlns="http://www.w3.org/2000/svg" xmlns:xlink="http://www.w3.org/1999/xlink" x="0px" y="0px"
	 viewBox="0 0 48 48" style="enable-background:new 0 0 48 48;" xml:space="preserve">
<style type="text/css">
	.st0{fill-rule:evenodd;clip-rule:evenodd;fill:#FFFFFF;}
</style>
<g>
	<path class="st0" d="M34.4,28.3c-0.5-0.3-3.2-1.7-3.7-1.9c-0.5-0.2-0.9-0.3-1.2,0.2c-0.4,0.5-1.5,1.7-1.8,2.1
		c-0.3,0.4-0.7,0.4-1.2,0.1c-0.5-0.3-2.3-0.9-4.3-2.9c-1.6-1.5-2.6-3.3-2.9-3.9c-0.3-0.6,0-0.8,0.3-1.1c0.3-0.2,0.6-0.6,0.9-0.9
		c0.3-0.3,0.4-0.5,0.6-0.9c0.2-0.4,0.1-0.7,0-1c-0.1-0.3-1.1-3-1.5-4.1c-0.4-1.1-0.9-0.9-1.2-1c-0.3,0-0.7-0.1-1-0.1
		c-0.4,0-1,0.1-1.5,0.6c-0.5,0.5-2,1.8-2.1,4.5c-0.1,2.7,1.8,5.4,2,5.7c0.3,0.4,3.6,6.2,9,8.6c5.5,2.4,5.5,1.7,6.5,1.6
		c1-0.1,3.3-1.2,3.8-2.5c0.5-1.3,0.5-2.4,0.4-2.6C35.3,28.7,35,28.6,34.4,28.3L34.4,28.3z M24.4,41.3c-3.6,0-7-1.1-9.8-3l-6.9,2.2
		l2.2-6.6C7.8,31,6.6,27.3,6.6,23.4c0-9.8,8-17.8,17.8-17.8c9.8,0,17.8,8,17.8,17.8C42.2,33.3,34.2,41.3,24.4,41.3L24.4,41.3z
		 M24.4,2C12.6,2,3,11.6,3,23.4c0,4.1,1.1,7.8,3.1,11.1L2.2,46L14,42.2c3.1,1.7,6.6,2.7,10.4,2.7c11.8,0,21.4-9.6,21.4-21.4
		C45.8,11.6,36.2,2,24.4,2L24.4,2z"/>
</g>
</svg>
